<?xml version="1.0" encoding="UTF-8"?>
<svg width="14px" height="15px" viewBox="0 0 14 15" version="1.1" xmlns="http://www.w3.org/2000/svg" xmlns:xlink="http://www.w3.org/1999/xlink">
    <!-- Generator: Sketch 52 (66869) - http://www.bohemiancoding.com/sketch -->
    <title>查看资质</title>
    <desc>Created with Sketch.</desc>
    <g id="查看资质" stroke="none" stroke-width="1" fill="none" fill-rule="evenodd">
        <path d="M11.445374,12.7382672 L12.4748737,13.767767 C12.6701359,13.9630291 12.6701359,14.2796116 12.4748737,14.4748737 C12.2796116,14.6701359 11.9630291,14.6701359 11.767767,14.4748737 L10.7382672,13.445374 C10.2478577,13.7946045 9.64791522,14 9,14 C7.34314575,14 6,12.6568542 6,11 C6,9.34314575 7.34314575,8 9,8 C10.6568542,8 12,9.34314575 12,11 C12,11.6479152 11.7946045,12.2478577 11.445374,12.7382672 Z M12,9 L12,4 C12,3.44771525 11.5522847,3 11,3 L8.38196601,3 L7.65835921,1.5527864 C7.4889672,1.21400238 7.14270408,1 6.76393202,1 L2,1 C1.44771525,1 1,1.44771525 1,2 L1,13 C1,13.5522847 1.44771525,14 2,14 L7,14 C7.27614237,14 7.5,14.2238576 7.5,14.5 C7.5,14.7761424 7.27614237,15 7,15 L2,15 C0.8954305,15 6.03961325e-14,14.1045695 6.03961325e-14,13 L6.03961325e-14,2 C6.03961325e-14,0.8954305 0.8954305,4.26325641e-13 2,4.26325641e-13 L6.76393202,4.26325641e-13 C7.52147614,4.26325641e-13 8.21400238,0.428004752 8.5527864,1.10557281 L9,2 L11,2 C12.1045695,2 13,2.8954305 13,4 L13,9 C13,9.27614237 12.7761424,9.5 12.5,9.5 C12.2238576,9.5 12,9.27614237 12,9 Z M2.5,4 L8.5,4 C8.77614237,4 9,4.22385763 9,4.5 C9,4.77614237 8.77614237,5 8.5,5 L2.5,5 C2.22385763,5 2,4.77614237 2,4.5 C2,4.22385763 2.22385763,4 2.5,4 Z M2.5,7 L5.5,7 C5.77614237,7 6,7.22385763 6,7.5 C6,7.77614237 5.77614237,8 5.5,8 L2.5,8 C2.22385763,8 2,7.77614237 2,7.5 C2,7.22385763 2.22385763,7 2.5,7 Z M9,13 C10.1045695,13 11,12.1045695 11,11 C11,9.8954305 10.1045695,9 9,9 C7.8954305,9 7,9.8954305 7,11 C7,12.1045695 7.8954305,13 9,13 Z" id="合并形状" fill="#0088FF"></path>
    </g>
</svg>